# xmcd
#
# Track frame offsets:
# 150
# 8582
# 17842
# 27197
# 37569
# 45613
# 56318
# 65278
# 76770
# 91978
# 103363
# 112123
# 120465
#
# Disc length: 1812 seconds
#
#
# Revision: 0
# Processed by: cddbd v1.5.2PL0 Copyright (c) Steve Scherf et al.
# Submitted via: FreeRIP 2.951 
#
DISCID=9007120d
DTITLE=Roger Miller - King Of The Road
DYEAR=2005
DGENRE=Country
TTITLE0=Do-Wacka-Do
TTITLE1=My Uncle Used To Love Me (But She Died)
TTITLE2=Chug-A-Lug
TTITLE3=Engine, Engine #9
TTITLE4=Dang Me
TTITLE5=Kansas City Star
TTITLE6=England Swings
TTITLE7=King Of The Road
TTITLE8=Me and Bobbie McGee
TTITLE9=Husbands And Wives
TTITLE10=You Can't Rollerskate In A Buffalo Herd
TTITLE11=In The Summertime
TTITLE12=Bonus Track: Chat With Roger Miller
EXTD=
EXTT0=
EXTT1=
EXTT2=
EXTT3=
EXTT4=
EXTT5=
EXTT6=
EXTT7=
EXTT8=
EXTT9=
EXTT10=
EXTT11=
EXTT12=
PLAYORDER=
